<?xml version="1.0" encoding="utf-8"?>
<!-- Generator: Adobe Illustrator 26.3.1, SVG Export Plug-In . SVG Version: 6.00 Build 0)  -->
<svg version="1.1" id="Lockup" xmlns="http://www.w3.org/2000/svg" xmlns:xlink="http://www.w3.org/1999/xlink" x="0px" y="0px"
	 viewBox="0 0 850.3 104.62" style="enable-background:new 0 0 850.3 104.62;" xml:space="preserve">
<style type="text/css">
	.st0{fill:#FFFFFF;}
</style>
<g>
	<path class="st0" d="M201.63,65.57c0-19.91,12.6-33.71,34.07-33.71c5.88,0,11.75,1.08,15.59,2.76v15.11
		c-3.6-1.68-8.16-2.76-13.79-2.76c-11.75,0-17.99,6.72-17.99,18.23c0,11.4,5.88,18.23,17.15,18.23c5.64,0,10.2-1.2,14.63-3.36v15.23
		c-4.56,1.92-9.84,3.24-17.03,3.24C212.91,98.55,201.63,85.72,201.63,65.57z"/>
	<path class="st0" d="M322.42,57.77v38.98h-17.63v-37.9c0-8.28-3.72-11.75-11.16-11.75c-4.56,0-9.24,1.92-12.95,6v43.66h-17.75V6.79
		h17.75V38.1c4.92-4.2,10.79-6.24,18.11-6.24C315.1,31.86,322.42,40.86,322.42,57.77z"/>
	<path class="st0" d="M367.03,84.28c8.28,0,13.67-1.08,20.39-3.72v14.27c-7.08,2.52-13.67,3.72-23.27,3.72
		c-21.59,0-33.23-12.11-33.23-32.63c0-20.39,11.64-34.07,31.55-34.07c16.91,0,27.95,9.6,27.95,29.99c0,2.88,0,5.88-0.12,8.76h-41.38
		C350.48,79.84,356.24,84.28,367.03,84.28z M349.04,58.97h24.83c-0.48-8.88-4.92-12.47-11.63-12.47
		C355.4,46.49,350.6,50.45,349.04,58.97z"/>
	<path class="st0" d="M397.38,65.57c0-19.91,12.6-33.71,34.07-33.71c5.88,0,11.75,1.08,15.59,2.76v15.11
		c-3.6-1.68-8.16-2.76-13.79-2.76c-11.75,0-17.99,6.72-17.99,18.23c0,11.4,5.88,18.23,17.15,18.23c5.64,0,10.56-1.2,14.99-3.36
		v15.23c-4.56,1.92-10.19,3.24-17.39,3.24C408.65,98.55,397.38,85.72,397.38,65.57z"/>
	<path class="st0" d="M520.44,96.75h-20.27l-10.32-18.47c-2.28-4.2-5.04-5.76-8.87-5.76h-4.56v24.23h-17.75V6.79h17.75v49.66h4.56
		c4.68,0,6.24-2.28,8.87-6.12l10.32-16.43l19.67-0.12l-13.07,20.87c-2.52,4.08-5.28,7.08-8.64,8.4c2.64,0.84,5.4,3.36,7.8,7.68
		L520.44,96.75z"/>
	<path class="st0" d="M620.48,54.41v42.34h-17.75V57.41c0-7.08-2.88-10.32-8.52-10.32c-4.2,0-7.68,1.92-10.8,6v43.66h-17.75V56.93
		c0-6.6-2.88-9.84-8.52-9.84c-3.72,0-7.56,1.92-10.8,5.88v43.78H528.6V33.78h14.99l1.08,5.16c5.16-4.8,11.16-6.96,19.07-6.96
		c8.4,0,13.55,3.48,16.55,8.28c5.28-5.88,11.75-8.28,20.27-8.28C615.32,31.98,620.48,42.42,620.48,54.41z"/>
	<path class="st0" d="M687.17,59.21v37.54h-14.87l-0.96-4.8c-4.92,4.2-11.52,6.72-20.15,6.72c-13.07,0-20.87-7.44-20.87-19.31
		c0-12.36,9.12-19.91,23.87-19.91c6.24,0,10.68,0.6,15.23,2.04v-3.6c0-7.68-4.08-10.92-14.27-10.92c-7.68,0-14.15,1.44-19.43,3.6
		V35.46c5.88-2.04,14.03-3.6,22.91-3.6C679.49,31.86,687.17,40.14,687.17,59.21z M656.82,85.72c5.16,0,9.24-1.8,12.59-5.04v-8.04
		c-3.6-1.08-7.44-1.68-11.03-1.68c-6.6,0-10.44,2.4-10.44,7.56C647.94,83.68,651.66,85.72,656.82,85.72z"/>
	<path class="st0" d="M745.82,81.04v14.51c-5.52,2.04-10.55,2.76-17.99,2.76c-17.03,0-23.51-9-23.51-25.43V49.13h-8.87V33.78h9.48
		l4.68-16.31h12.47v16.31h22.67v15.35h-22.67V70.6c0,9.12,3,12.83,11.28,12.83C737.18,83.44,741.62,82.6,745.82,81.04z"/>
	<path class="st0" d="M787.2,84.28c8.28,0,13.67-1.08,20.39-3.72v14.27c-7.08,2.52-13.67,3.72-23.27,3.72
		c-21.59,0-33.23-12.11-33.23-32.63c0-20.39,11.64-34.07,31.55-34.07c16.91,0,27.95,9.6,27.95,29.99c0,2.88,0,5.88-0.12,8.76h-41.38
		C770.64,79.84,776.4,84.28,787.2,84.28z M769.21,58.97h24.83c-0.48-8.88-4.92-12.47-11.63-12.47
		C775.56,46.49,770.76,50.45,769.21,58.97z"/>
	<rect x="819.9" y="77.23" class="st0" width="21.32" height="21.32"/>
</g>
<path class="st0" d="M137.53,6.79L66.11,93.22V39.41H6.99v59.13l74.43,0.01c29.82,0,54.76-12.55,72.67-34.22l47.55-57.54H137.53z"/>
</svg>
