<svg width="126" height="21" viewBox="0 0 126 21" fill="none" xmlns="http://www.w3.org/2000/svg">
<path d="M120.845 16.2949C117.603 16.2949 115.368 13.8138 115.368 10.215C115.368 6.72803 117.581 4.13514 120.755 4.13514C124.019 4.13514 125.74 6.61627 125.74 9.85738V10.2415C125.74 10.3997 125.611 10.528 125.453 10.528H117.29C117.402 12.9867 118.81 14.5514 120.845 14.5514C122.293 14.5514 123.359 13.8232 123.793 12.6153C123.849 12.4571 124.021 12.3645 124.179 12.4207L125.383 12.8472C125.531 12.8997 125.61 13.0624 125.551 13.2082C124.781 15.1291 123.068 16.2949 120.845 16.2949ZM120.733 5.85628C119.034 5.85628 117.76 6.99626 117.402 8.98563H123.706C123.661 7.33155 122.767 5.85628 120.733 5.85628Z" fill="#1C1B1A"/>
<path d="M109.401 13.255V6.07982H107.877C107.719 6.07982 107.591 5.95157 107.591 5.79337V4.64513C107.591 4.48693 107.719 4.35868 107.877 4.35868H109.401V1.2252C109.401 1.067 109.53 0.938751 109.688 0.938751L111.104 0.938751C111.262 0.938751 111.391 1.067 111.391 1.2252V4.35868L113.764 4.35868C113.922 4.35868 114.051 4.48693 114.051 4.64513V5.79337C114.051 5.95157 113.922 6.07982 113.764 6.07982H111.391V12.942C111.391 14.1714 111.994 14.3949 113.022 14.3949C113.365 14.3949 113.637 14.383 113.941 14.333C114.124 14.303 114.297 14.4385 114.297 14.6235V15.7511C114.297 15.8859 114.203 16.003 114.07 16.0274C113.613 16.1117 113.105 16.1608 112.531 16.1608C110.541 16.1608 109.401 15.4902 109.401 13.255Z" fill="#1C1B1A"/>
<path d="M100.765 16.2502C98.6411 16.2502 96.9199 14.9985 96.9199 12.8974C96.9199 10.5727 98.7305 9.61155 101.346 9.07509L104.184 8.49393V8.00217C104.184 6.66103 103.447 5.90104 101.882 5.90104C100.513 5.90104 99.6631 6.49832 99.2623 7.62132C99.2097 7.76865 99.056 7.85897 98.9046 7.81977L97.5641 7.47282C97.4074 7.43226 97.3146 7.26948 97.3702 7.11744C98.0104 5.36559 99.6773 4.1352 101.949 4.1352C104.564 4.1352 106.174 5.40929 106.174 7.91276V13.6126C106.174 14.2494 106.503 14.5253 107.07 14.4928C107.254 14.4823 107.426 14.615 107.426 14.799V15.7962C107.426 15.9407 107.317 16.0632 107.174 16.0767C105.541 16.2303 104.597 15.7943 104.363 14.7303C103.648 15.6467 102.352 16.2502 100.765 16.2502ZM104.184 12.0703V10.0586L101.905 10.5504C100.116 10.908 98.9093 11.3998 98.9093 12.808C98.9093 13.9479 99.7363 14.6185 101.01 14.6185C102.732 14.6185 104.184 13.5679 104.184 12.0703Z" fill="#1C1B1A"/>
<path d="M87.926 15.8626C87.8843 15.9747 87.7772 16.0491 87.6575 16.0491H86.3348C86.215 16.0491 86.1078 15.9745 86.0662 15.8622L81.2402 2.83876V15.7626C81.2402 15.9208 81.112 16.0491 80.9538 16.0491H79.515C79.3568 16.0491 79.2285 15.9208 79.2285 15.7626V0.28645C79.2285 0.128248 79.3568 0 79.515 0L81.9572 0C82.0771 0 82.1843 0.0746895 82.2258 0.187169L87.0295 13.188L91.8554 0.18677C91.8971 0.0744984 92.0042 0 92.1239 0L94.477 0C94.6352 0 94.7635 0.128248 94.7635 0.28645V15.7626C94.7635 15.9208 94.6352 16.0491 94.477 16.0491L93.0606 16.0491C92.9024 16.0491 92.7741 15.9208 92.7741 15.7626V2.83876L87.926 15.8626Z" fill="#1C1B1A"/>
<path d="M66.9275 16.2949C63.6864 16.2949 61.4512 13.8138 61.4512 10.2151C61.4512 6.72807 63.6641 4.13518 66.8381 4.13518C70.1016 4.13518 71.8227 6.61631 71.8227 9.85741V10.2415C71.8227 10.3997 71.6945 10.528 71.5363 10.528H63.3735C63.4853 12.9868 64.8935 14.5514 66.9275 14.5514C68.3762 14.5514 69.4417 13.8233 69.8756 12.6153C69.9324 12.4571 70.1039 12.3645 70.2623 12.4207L71.4658 12.8472C71.6139 12.8997 71.6927 13.0624 71.6342 13.2083C70.8636 15.1291 69.1512 16.2949 66.9275 16.2949ZM66.8158 5.85632C65.117 5.85632 63.8429 6.9963 63.4852 8.98567H69.7886C69.7439 7.33158 68.8498 5.85632 66.8158 5.85632Z" fill="#1C1B1A"/>
<path d="M55.4844 13.255V6.07986H53.9603C53.8021 6.07986 53.6738 5.95161 53.6738 5.79341V4.64517C53.6738 4.48697 53.8021 4.35872 53.9603 4.35872H55.4844V1.22524C55.4844 1.06704 55.6126 0.938789 55.7708 0.938789L57.1873 0.938789C57.3455 0.938789 57.4737 1.06704 57.4737 1.22524V4.35872L59.8472 4.35872C60.0054 4.35872 60.1337 4.48697 60.1337 4.64517V5.79341C60.1337 5.95161 60.0054 6.07986 59.8472 6.07986H57.4737V12.9421C57.4737 14.1715 58.0773 14.395 59.1055 14.395C59.4484 14.395 59.7198 14.383 60.0242 14.333C60.2068 14.303 60.3796 14.4385 60.3796 14.6235V15.7511C60.3796 15.8859 60.2858 16.003 60.1533 16.0274C59.6963 16.1117 59.1877 16.1608 58.6137 16.1608C56.6244 16.1608 55.4844 15.4903 55.4844 13.255Z" fill="#1C1B1A"/>
<path d="M46.7811 16.2502C44.6577 16.2502 42.9365 14.9985 42.9365 12.8974C42.9365 10.5727 44.7471 9.61154 47.3623 9.07508L50.2011 8.49391V8.00216C50.2011 6.66101 49.4634 5.90103 47.8988 5.90103C46.5291 5.90103 45.6797 6.4983 45.2789 7.62131C45.2263 7.76863 45.0726 7.85895 44.9212 7.81976L43.5807 7.47281C43.424 7.43225 43.3312 7.26947 43.3868 7.11742C44.027 5.36558 45.6939 4.13518 47.9658 4.13518C50.5811 4.13518 52.1904 5.40927 52.1904 7.91275V13.6126C52.1904 14.2494 52.52 14.5253 53.0871 14.4928C53.2707 14.4822 53.4422 14.615 53.4422 14.799V15.7962C53.4422 15.9406 53.3341 16.0632 53.1902 16.0767C51.5572 16.2303 50.614 15.7943 50.3799 14.7303C49.6646 15.6467 48.3682 16.2502 46.7811 16.2502ZM50.2011 12.0703V10.0586L47.9211 10.5503C46.1329 10.908 44.9259 11.3997 44.9259 12.8079C44.9259 13.9479 45.7529 14.6185 47.027 14.6185C48.7482 14.6185 50.2011 13.5679 50.2011 12.0703Z" fill="#1C1B1A"/>
<path d="M42.0689 4.29043C42.2144 4.30133 42.3241 4.42443 42.3241 4.57039V5.99867C42.3241 6.17943 42.1588 6.31378 41.9793 6.29195C41.781 6.26782 41.5836 6.25867 41.3406 6.25867C39.6418 6.25867 38.2783 7.59982 38.2783 9.65625V15.7626C38.2783 15.9208 38.1501 16.0491 37.9919 16.0491H36.5531C36.3948 16.0491 36.2666 15.9208 36.2666 15.7626V4.64516C36.2666 4.48696 36.3948 4.35871 36.5531 4.35871H37.9919C38.1501 4.35871 38.2783 4.48696 38.2783 4.64516V6.34808C38.7924 5.1634 39.9324 4.2693 41.5194 4.2693C41.7171 4.2693 41.9059 4.27822 42.0689 4.29043Z" fill="#1C1B1A"/>
<path d="M33.6035 14.9985C33.6035 18.4184 31.3459 20.3184 28.1719 20.3184C25.7045 20.3184 23.8755 19.2269 23.1595 17.2415C23.1084 17.1001 23.1844 16.9464 23.3249 16.8928L24.6526 16.3871C24.8127 16.3261 24.9891 16.419 25.0459 16.5806C25.5058 17.889 26.6555 18.6419 28.1719 18.6419C30.2283 18.6419 31.5918 17.5914 31.5918 15.155V13.8362C30.9659 14.9761 29.6471 15.7808 28.0154 15.7808C24.819 15.7808 22.9414 13.1432 22.9414 9.94683C22.9414 6.77277 24.819 4.13518 28.0154 4.13518C29.6248 4.13518 30.9659 4.93987 31.5918 6.07985V4.64516C31.5918 4.48696 31.7201 4.35871 31.8783 4.35871H33.3171C33.4753 4.35871 33.6035 4.48696 33.6035 4.64516V14.9985ZM31.6142 9.76801C31.6142 7.15277 30.0495 5.90103 28.3731 5.90103C26.2496 5.90103 24.9531 7.48805 24.9531 9.94683C24.9531 12.4056 26.2496 14.015 28.3731 14.015C30.0495 14.015 31.6142 12.7632 31.6142 10.1927V9.76801Z" fill="#1C1B1A"/>
<path d="M18.7386 2.32466C18.5804 2.32466 18.4521 2.19641 18.4521 2.03821V0.286449C18.4521 0.128247 18.5804 0 18.7386 0L20.3562 0C20.5144 0 20.6427 0.128248 20.6427 0.28645V2.03821C20.6427 2.19641 20.5144 2.32466 20.3562 2.32466L18.7386 2.32466ZM20.2668 4.35873C20.425 4.35873 20.5533 4.48698 20.5533 4.64518V15.7626C20.5533 15.9208 20.425 16.0491 20.2668 16.0491H18.828C18.6698 16.0491 18.5416 15.9208 18.5416 15.7626L18.5416 4.64518C18.5416 4.48698 18.6698 4.35873 18.828 4.35873H20.2668Z" fill="#1C1B1A"/>
<path d="M8.69749 15.8628C8.65574 15.9749 8.54869 16.0493 8.42903 16.0493H7.10625C6.98644 16.0493 6.87928 15.9747 6.83765 15.8624L2.01172 2.83899L2.01172 15.7628C2.01172 15.9211 1.88347 16.0493 1.72527 16.0493H0.28645C0.128248 16.0493 0 15.9211 0 15.7628L0 0.286671C0 0.128469 0.128248 0.000221252 0.28645 0.000221252L2.72864 0.000221252C2.84855 0.000221252 2.95577 0.0749108 2.99733 0.187391L7.80101 13.1882L12.6269 0.186991C12.6686 0.0747196 12.7757 0.000221252 12.8954 0.000221252L15.2485 0.000221252C15.4067 0.000221252 15.535 0.128469 15.535 0.286671L15.535 15.7628C15.535 15.9211 15.4067 16.0493 15.2485 16.0493L13.832 16.0493C13.6738 16.0493 13.5456 15.9211 13.5456 15.7628L13.5456 2.83899L8.69749 15.8628Z" fill="#1C1B1A"/>
</svg>