<svg width="266" height="91" viewBox="0 0 266 91" fill="none" xmlns="http://www.w3.org/2000/svg">
<g clip-path="url(#clip0_528_345)">
<path d="M92.7393 65.3916C92.8863 65.1272 93.2311 65.0485 93.4863 65.2109C94.4474 65.8228 95.4923 66.2476 96.5459 66.499C96.6099 66.5143 96.643 66.5855 96.6123 66.6436C89.0436 80.8375 74.0941 90.4997 56.8848 90.5C42.1795 90.5 29.1218 83.4455 20.9102 72.5371C20.8607 72.4711 20.9079 72.3776 20.9902 72.3779C22.4787 72.3898 24.0231 72.3674 25.6172 72.3105C25.7689 72.3051 25.9147 72.3691 26.0146 72.4834C33.53 81.0741 44.574 86.5 56.8848 86.5C72.3095 86.4997 85.7417 77.9805 92.7393 65.3916ZM56.8848 0.5C75.3376 0.500293 91.1952 11.6076 98.1387 27.501C98.1776 27.59 98.0792 27.6761 97.9961 27.626L92.6074 24.3525L92.4785 24.2773L92.1387 24.0869C92.0451 24.0373 91.9505 23.9895 91.8555 23.9434C91.769 23.9013 91.6956 23.8363 91.6445 23.7549C84.3962 12.1907 71.5397 4.50026 56.8848 4.5C34.2411 4.5 15.8848 22.8563 15.8848 45.5C15.8848 49.3408 16.4146 53.0576 17.4023 56.583C17.4959 56.9169 17.2346 57.2475 16.8887 57.2236C15.6021 57.1342 14.4365 57.0097 13.3926 56.8564C13.3529 56.8506 13.3206 56.8211 13.3105 56.7822C12.5135 53.695 12.0368 50.4795 11.916 47.1729C8.92142 49.0334 6.1183 51.1498 3.58691 53.6055C2.57303 54.8825 1.80145 56.3874 2.0752 57.9121C2.44433 59.0559 3.40324 59.8892 4.49414 60.4785C6.00138 61.2851 7.72375 61.7166 9.46387 62.082C19.39 63.8422 29.7621 62.3046 39.8672 60.9746C46.4804 60.0396 53.0783 58.8972 59.6777 57.6123C64.9882 56.5779 70.2755 55.337 75.5225 53.8105C75.5973 53.7888 75.6723 53.7656 75.7471 53.7432C75.7794 53.7336 75.8143 53.7408 75.8398 53.7627L76.0566 53.9492C76.0775 53.9671 76.0905 53.9931 76.0918 54.0205L76.1055 54.2969C76.1074 54.3365 76.0852 54.3737 76.0498 54.3916C75.9662 54.4339 75.8828 54.477 75.7988 54.5186C70.8684 56.9586 65.6944 58.954 60.3984 60.5342C53.8662 62.4828 47.193 63.979 40.4268 64.9355C30.0501 66.2895 19.3911 66.824 8.93457 64.2705C7.08052 63.7513 5.24649 63.0237 3.62207 61.8135C2.52539 60.9917 1.51328 59.835 1.16504 58.4346L1.10449 58.1514C0.522215 56.2137 1.3211 54.2374 2.30664 52.6973C5.17077 49.2994 8.41336 46.4572 11.9111 44.0234C12.6903 19.8541 32.5261 0.5 56.8848 0.5ZM85.9141 30.6104C86.7019 29.8769 87.7744 29.7401 88.7568 30.2197L88.957 30.3271L88.9727 30.3359L99.8086 36.9189L106.32 33.7295C107.966 32.9235 109.686 32.5897 111.189 32.6367C112.563 32.6798 113.896 33.0493 114.776 33.8262L114.946 33.9873L115.049 34.1104C115.142 34.2415 115.203 34.3948 115.225 34.5557C115.39 35.7884 114.852 37.1651 113.99 38.3506C113.106 39.5673 111.786 40.7222 110.141 41.5283L103.63 44.7178L102.19 57.3154L102.188 57.334C102.021 58.5831 101.188 59.3487 100.146 59.6865C100.063 59.7135 99.9761 59.729 99.8887 59.7334L99.041 59.7764C97.8374 59.8371 96.6656 59.239 96.2559 57.9756C96.2373 57.9183 96.2238 57.8595 96.2158 57.7998L95.0508 49.0898L85.8809 52.2314L84.5078 56.2412C84.4219 56.4917 84.2396 56.6978 84.002 56.8145L82 57.7949C81.6984 57.9425 81.3431 57.9289 81.0537 57.7588C80.7642 57.5883 80.5788 57.2838 80.5615 56.9482L80.2744 51.3242L76.0068 47.6514C75.7523 47.4322 75.6253 47.0988 75.668 46.7656C75.7108 46.4324 75.918 46.1429 76.2197 45.9951L78.2197 45.0146L78.3105 44.9756C78.5261 44.8952 78.7638 44.8918 78.9834 44.9668L82.9922 46.3389L91.0967 41.0176L84.9277 34.7598C84.8855 34.7169 84.8473 34.6698 84.8135 34.6201C84.0664 33.5218 84.3126 32.2282 85.0986 31.3145L85.2119 31.2021L85.9141 30.6104ZM87.9482 32.0527C87.6186 31.8618 87.4185 31.9317 87.2598 32.0879C87.2417 32.1056 87.2225 32.1223 87.2031 32.1387L86.5791 32.6641C86.3233 32.9846 86.3315 33.2468 86.4355 33.4395L93.377 40.4834C93.5869 40.6966 93.6907 40.9925 93.6592 41.29C93.6274 41.5878 93.4632 41.8562 93.2129 42.0205L83.6807 48.2793C83.4224 48.4488 83.0999 48.4897 82.8076 48.3896L78.7275 46.9932L78.46 47.123L81.9033 50.0879L81.9775 50.1582C82.1405 50.3303 82.2378 50.556 82.25 50.7949L82.4814 55.3311L82.75 55.2002L84.1465 51.1211C84.2466 50.8289 84.4763 50.5991 84.7686 50.499L95.5566 46.8027L95.6641 46.7725C95.917 46.7164 96.1844 46.7606 96.4072 46.8984C96.6618 47.056 96.8324 47.3204 96.8721 47.6172L98.1816 57.418C98.2741 57.6274 98.492 57.8019 98.9404 57.7793L99.6357 57.7432C100.013 57.5956 100.163 57.3844 100.205 57.0693H100.204L101.704 43.9473C101.743 43.6088 101.952 43.3131 102.258 43.1631L109.261 39.7324C110.616 39.0684 111.681 38.1248 112.371 37.1748C112.94 36.3916 113.196 35.6854 113.242 35.1719C112.808 34.8945 112.094 34.6651 111.128 34.6348C109.954 34.5979 108.556 34.8613 107.2 35.5254L100.197 38.9561C99.8912 39.106 99.5296 39.0899 99.2383 38.9131L87.9482 32.0527Z" fill="white"/>
<path d="M206.516 80.3392C200.241 80.3392 195.913 75.5354 195.913 68.5677C195.913 61.8164 200.198 56.7961 206.343 56.7961C212.662 56.7961 215.994 61.6 215.994 67.8752V68.619C215.994 68.9253 215.746 69.1736 215.439 69.1736H199.635C199.851 73.9341 202.578 76.9636 206.516 76.9636C209.321 76.9636 211.384 75.5537 212.224 73.215C212.334 72.9086 212.666 72.7294 212.973 72.8381L215.303 73.664C215.59 73.7656 215.742 74.0806 215.629 74.363C214.137 78.082 210.822 80.3392 206.516 80.3392ZM206.3 60.1285C203.011 60.1285 200.544 62.3357 199.851 66.1874H212.056C211.969 62.9849 210.238 60.1285 206.3 60.1285Z" fill="white"/>
<path d="M167.638 80.2527C163.526 80.2527 160.194 77.8291 160.194 73.761C160.194 69.2601 163.699 67.3992 168.763 66.3605L174.259 65.2353V64.2832C174.259 61.6865 172.831 60.2151 169.801 60.2151C167.15 60.2151 165.505 61.3715 164.729 63.5458C164.627 63.831 164.33 64.0059 164.036 63.93L161.441 63.2583C161.138 63.1797 160.958 62.8646 161.066 62.5702C162.305 59.1784 165.532 56.7961 169.931 56.7961C174.995 56.7961 178.111 59.263 178.111 64.1101V75.1459C178.111 76.3788 178.749 76.9129 179.847 76.85C180.202 76.8296 180.534 77.0867 180.534 77.4428V79.3736C180.534 79.6533 180.325 79.8906 180.047 79.9167C176.885 80.214 175.059 79.3699 174.605 77.3098C173.22 79.0842 170.71 80.2527 167.638 80.2527ZM174.259 72.1597V68.2647L169.845 69.2168C166.383 69.9093 164.046 70.8614 164.046 73.5879C164.046 75.7951 165.647 77.0934 168.114 77.0934C171.446 77.0934 174.259 75.0593 174.259 72.1597Z" fill="white"/>
<path d="M142.781 79.5021C142.7 79.7192 142.493 79.8632 142.261 79.8632H139.7C139.468 79.8632 139.261 79.7188 139.18 79.5013L129.836 54.2861V79.3086C129.836 79.6149 129.588 79.8632 129.282 79.8632H126.496C126.19 79.8632 125.941 79.6149 125.941 79.3086V49.3444C125.941 49.0381 126.19 48.7898 126.496 48.7898H131.224C131.457 48.7898 131.664 48.9344 131.745 49.1522L141.045 74.3236L150.389 49.1514C150.47 48.934 150.677 48.7898 150.909 48.7898L155.465 48.7898C155.771 48.7898 156.019 49.0381 156.019 49.3444V79.3086C156.019 79.6149 155.771 79.8632 155.465 79.8632H152.722C152.416 79.8632 152.168 79.6149 152.168 79.3086V54.2861L142.781 79.5021Z" fill="white"/>
<path d="M255.522 42.6258C249.247 42.6258 244.919 37.822 244.919 30.8543C244.919 24.103 249.203 19.0828 255.349 19.0828C261.667 19.0828 265 23.8866 265 30.1619V30.9056C265 31.2119 264.751 31.4602 264.445 31.4602H248.641C248.857 36.2207 251.584 39.2502 255.522 39.2502C258.327 39.2502 260.39 37.8403 261.23 35.5016C261.34 35.1952 261.672 35.016 261.979 35.1248L264.309 35.9506C264.596 36.0523 264.748 36.3672 264.635 36.6496C263.143 40.3686 259.827 42.6258 255.522 42.6258ZM255.306 22.4151C252.016 22.4151 249.55 24.6223 248.857 28.474H261.062C260.975 25.2715 259.244 22.4151 255.306 22.4151Z" fill="white"/>
<path d="M233.368 36.7401V22.8479H230.417C230.111 22.8479 229.862 22.5996 229.862 22.2933V20.0701C229.862 19.7638 230.111 19.5155 230.417 19.5155H233.368V13.4487C233.368 13.1424 233.616 12.894 233.922 12.894H236.665C236.971 12.894 237.22 13.1423 237.22 13.4487V19.5155H241.815C242.121 19.5155 242.37 19.7638 242.37 20.0701V22.2933C242.37 22.5996 242.121 22.8479 241.815 22.8479H237.22V36.1342C237.22 38.5144 238.388 38.9472 240.379 38.9472C241.043 38.9472 241.568 38.9241 242.158 38.8273C242.511 38.7692 242.846 39.0315 242.846 39.3897V41.5729C242.846 41.8338 242.664 42.0606 242.407 42.1079C241.523 42.271 240.538 42.3662 239.427 42.3662C235.575 42.3662 233.368 41.0678 233.368 36.7401Z" fill="white"/>
<path d="M216.517 42.5393C212.406 42.5393 209.073 40.1157 209.073 36.0476C209.073 31.5467 212.579 29.6858 217.642 28.6471L223.138 27.5219V26.5698C223.138 23.9731 221.71 22.5017 218.681 22.5017C216.029 22.5017 214.384 23.6581 213.608 25.8324C213.507 26.1177 213.209 26.2925 212.916 26.2166L210.32 25.5449C210.017 25.4664 209.837 25.1512 209.945 24.8568C211.185 21.465 214.412 19.0828 218.811 19.0828C223.874 19.0828 226.99 21.5496 226.99 26.3967V37.4325C226.99 38.6654 227.628 39.1995 228.726 39.1366C229.082 39.1162 229.414 39.3733 229.414 39.7295V41.6602C229.414 41.9399 229.204 42.1772 228.926 42.2034C225.764 42.5006 223.938 41.6565 223.485 39.5964C222.1 41.3708 219.59 42.5393 216.517 42.5393ZM223.138 34.4463V30.5514L218.724 31.5035C215.262 32.1959 212.925 33.148 212.925 35.8745C212.925 38.0817 214.526 39.38 216.993 39.38C220.325 39.38 223.138 37.346 223.138 34.4463Z" fill="white"/>
<path d="M207.394 19.3833C207.676 19.4044 207.888 19.6428 207.888 19.9254V22.6907C207.888 23.0407 207.568 23.3008 207.221 23.2585C206.837 23.2118 206.455 23.1941 205.984 23.1941C202.695 23.1941 200.055 25.7908 200.055 29.7723V41.5951C200.055 41.9014 199.807 42.1498 199.501 42.1498H196.715C196.408 42.1498 196.16 41.9014 196.16 41.5951V20.0701C196.16 19.7638 196.408 19.5155 196.715 19.5155H199.501C199.807 19.5155 200.055 19.7638 200.055 20.0701V23.3672C201.051 21.0735 203.258 19.3424 206.33 19.3424C206.713 19.3424 207.079 19.3597 207.394 19.3833Z" fill="white"/>
<path d="M191.002 40.1157C191.002 46.7372 186.631 50.4158 180.486 50.4158C175.709 50.4158 172.168 48.3025 170.781 44.4586C170.682 44.1847 170.829 43.8871 171.101 43.7835L173.672 42.8042C173.982 42.6862 174.324 42.8661 174.434 43.1789C175.324 45.7123 177.55 47.17 180.486 47.17C184.467 47.17 187.107 45.1359 187.107 40.4187V37.8653C185.896 40.0724 183.342 41.6304 180.183 41.6304C173.994 41.6304 170.359 36.5237 170.359 30.335C170.359 24.1895 173.994 19.0828 180.183 19.0828C183.299 19.0828 185.896 20.6408 187.107 22.8479V20.0702C187.107 19.7638 187.356 19.5155 187.662 19.5155H190.448C190.754 19.5155 191.002 19.7638 191.002 20.0702V40.1157ZM187.151 29.9887C187.151 24.9253 184.121 22.5017 180.875 22.5017C176.764 22.5017 174.254 25.5744 174.254 30.335C174.254 35.0955 176.764 38.2115 180.875 38.2115C184.121 38.2115 187.151 35.788 187.151 30.811V29.9887Z" fill="white"/>
<path d="M188.213 51.162V57.2291H192.808C193.114 57.2291 193.362 57.4774 193.362 57.7837V60.0065C193.362 60.3128 193.114 60.5611 192.808 60.5611H188.213V73.8479C188.213 76.2278 189.382 76.661 191.372 76.661C192.036 76.661 192.562 76.6376 193.151 76.5408C193.504 76.4829 193.839 76.7449 193.839 77.103V79.2867C193.839 79.5475 193.657 79.7735 193.4 79.8208C192.516 79.9838 191.531 80.0796 190.42 80.0797C186.569 80.0797 184.361 78.7812 184.361 74.4534V60.5611H181.41C181.104 60.5611 180.855 60.3128 180.855 60.0065V57.7837C180.855 57.4774 181.104 57.2291 181.41 57.2291H184.361V52.7337C185.741 52.3928 187.037 51.8534 188.207 51.1111C188.209 51.1279 188.213 51.1447 188.213 51.162Z" fill="white"/>
<path d="M162.223 15.5773C161.916 15.5773 161.668 15.329 161.668 15.0227V11.631C161.668 11.3247 161.916 11.0764 162.223 11.0764H165.355C165.661 11.0764 165.909 11.3247 165.909 11.631V15.0227C165.909 15.329 165.661 15.5773 165.355 15.5773H162.223ZM165.181 19.5156C165.488 19.5156 165.736 19.7639 165.736 20.0702V41.5952C165.736 41.9015 165.488 42.1498 165.181 42.1498H162.396C162.089 42.1498 161.841 41.9015 161.841 41.5952V20.0702C161.841 19.7639 162.089 19.5156 162.396 19.5156H165.181Z" fill="white"/>
<path d="M142.781 41.7887C142.7 42.0058 142.493 42.1498 142.261 42.1498H139.7C139.468 42.1498 139.261 42.0054 139.18 41.7879L129.836 16.5727V41.5952C129.836 41.9015 129.588 42.1498 129.282 42.1498H126.496C126.19 42.1498 125.941 41.9015 125.941 41.5952V11.631C125.941 11.3247 126.19 11.0764 126.496 11.0764H131.224C131.457 11.0764 131.664 11.221 131.745 11.4388L141.045 36.6103L150.389 11.438C150.47 11.2207 150.677 11.0764 150.909 11.0764H155.465C155.771 11.0764 156.019 11.3247 156.019 11.631V41.5952C156.019 41.9015 155.771 42.1498 155.465 42.1498H152.722C152.416 42.1498 152.168 41.9015 152.168 41.5952V16.5727L142.781 41.7887Z" fill="white"/>
</g>
<defs>
<clipPath id="clip0_528_345">
<rect width="266" height="91" fill="white"/>
</clipPath>
</defs>
</svg>
